STARTFONT 2.1
FONT -thai-dbthaitext-bold-r-normal--33-240-100-100-p-101-tis620-0
SIZE 24 100 100
FONTBOUNDINGBOX 44 39 -11 -14
STARTPROPERTIES 25
FOUNDRY "thai"
FAMILY_NAME "dbthaitext"
WEIGHT_NAME "bold"
SLANT "r"
SETWIDTH_NAME "normal"
ADD_STYLE_NAME ""
PIXEL_SIZE 33
POINT_SIZE 240
RESOLUTION_X 100
RESOLUTION_Y 100
SPACING "p"
AVERAGE_WIDTH 101
CHARSET_REGISTRY "tis620"
CHARSET_ENCODING "0"
FONT "-thai-dbthaitext-bold-r-normal--33-240-100-100-p-101-tis620-0"
COPYRIGHT "Typeface (c) The Monotype Corporation plc. Data (c) The Monotype Corporation plc/Type Solutions Inc. 1990-1992. All Rights Reserved"
RAW_PIXELSIZE 1000
RAW_POINTSIZE 723
RAW_ASCENT 738
RAW_DESCENT 408
RAW_AVERAGE_WIDTH 3023
FACE_NAME "DBThaiTextBoldne5"
DEFAULT_CHAR 0
FONT_ASCENT 25
FONT_DESCENT 14
ENDPROPERTIES
CHARS 190
STARTCHAR space
ENCODING 32
SWIDTH 240 0
DWIDTH 8 0
BBX 0 0 0 0
BITMAP
ENDCHAR
STARTCHAR exclam
ENCODING 33
SWIDTH 180 0
DWIDTH 6 0
BBX 2 14 3 0
BITMAP
c0
c0
c0
c0
c0
c0
c0
c0
40
40
00
c0
c0
c0
ENDCHAR
STARTCHAR quotedbl
ENCODING 34
SWIDTH 270 0
DWIDTH 9 0
BBX 7 5 1 9
BITMAP
c6
c6
c6
c6
42
ENDCHAR
STARTCHAR numbersign
ENCODING 35
SWIDTH 330 0
DWIDTH 11 0
BBX 10 13 0 0
BITMAP
0980
1980
1980
1980
7fc0
7fc0
3300
3300
ffc0
ffc0
2600
6600
2200
ENDCHAR
STARTCHAR dollar
ENCODING 36
SWIDTH 330 0
DWIDTH 11 0
BBX 10 16 0 -2
BITMAP
0c00
3f00
7f80
65c0
6dc0
7c00
3e00
1f80
0fc0
0dc0
edc0
69c0
7f80
3f00
0c00
0c00
ENDCHAR
STARTCHAR percent
ENCODING 37
SWIDTH 510 0
DWIDTH 17 0
BBX 16 14 0 0
BITMAP
3800
7c10
ee30
c660
c640
fec0
7c80
01be
017f
0363
0263
0677
0c3e
081c
ENDCHAR
STARTCHAR ampersand
ENCODING 38
SWIDTH 420 0
DWIDTH 14 0
BBX 12 14 1 0
BITMAP
1e00
3f00
3700
7300
3b00
3e00
1c00
7e60
e760
c7c0
c3c0
e3c0
7fe0
3e70
ENDCHAR
STARTCHAR apostrophe
ENCODING 39
SWIDTH 150 0
DWIDTH 5 0
BBX 2 5 1 9
BITMAP
c0
c0
c0
c0
40
ENDCHAR
STARTCHAR parenleft
ENCODING 40
SWIDTH 180 0
DWIDTH 6 0
BBX 5 18 1 -4
BITMAP
10
38
30
60
60
60
e0
c0
c0
c0
e0
e0
60
60
70
30
30
18
ENDCHAR
STARTCHAR parenright
ENCODING 41
SWIDTH 180 0
DWIDTH 6 0
BBX 5 18 0 -4
BITMAP
60
60
20
30
30
18
18
18
18
18
18
18
18
30
30
20
60
40
ENDCHAR
STARTCHAR asterisk
ENCODING 42
SWIDTH 210 0
DWIDTH 7 0
BBX 7 7 0 7
BITMAP
18
18
76
7c
38
7c
24
ENDCHAR
STARTCHAR plus
ENCODING 43
SWIDTH 330 0
DWIDTH 11 0
BBX 9 9 1 0
BITMAP
0c00
0c00
0c00
0c00
ff80
ff80
0c00
0c00
0c00
ENDCHAR
STARTCHAR comma
ENCODING 44
SWIDTH 180 0
DWIDTH 6 0
BBX 3 5 2 -2
BITMAP
e0
e0
60
40
80
ENDCHAR
STARTCHAR minus
ENCODING 45
SWIDTH 180 0
DWIDTH 6 0
BBX 5 3 1 4
BITMAP
f8
f8
f8
ENDCHAR
STARTCHAR period
ENCODING 46
SWIDTH 150 0
DWIDTH 5 0
BBX 2 3 1 0
BITMAP
80
c0
c0
ENDCHAR
STARTCHAR slash
ENCODING 47
SWIDTH 150 0
DWIDTH 5 0
BBX 5 14 0 0
BITMAP
08
08
10
10
10
30
20
20
60
40
40
c0
c0
40
ENDCHAR
STARTCHAR 0
ENCODING 48
SWIDTH 330 0
DWIDTH 11 0
BBX 8 14 1 0
BITMAP
18
7e
7e
e3
c3
c3
c3
c3
c3
c3
c3
66
7e
3c
ENDCHAR
STARTCHAR 1
ENCODING 49
SWIDTH 330 0
DWIDTH 11 0
BBX 6 13 1 0
BITMAP
0c
1c
fc
fc
0c
0c
0c
0c
0c
0c
0c
0c
0c
ENDCHAR
STARTCHAR 2
ENCODING 50
SWIDTH 330 0
DWIDTH 11 0
BBX 9 14 1 0
BITMAP
1c00
7f00
7700
e380
e380
0380
0380
0700
1e00
3800
7000
7000
ff80
ff80
ENDCHAR
STARTCHAR 3
ENCODING 51
SWIDTH 330 0
DWIDTH 11 0
BBX 9 14 1 0
BITMAP
1c00
7f00
7700
e380
e380
0300
0e00
0f00
0380
0380
c380
e380
7f00
3e00
ENDCHAR
STARTCHAR 4
ENCODING 52
SWIDTH 330 0
DWIDTH 11 0
BBX 10 13 0 0
BITMAP
0700
0f00
0f00
1b00
3b00
3300
6300
6300
ffc0
ffc0
0300
0300
0300
ENDCHAR
STARTCHAR 5
ENCODING 53
SWIDTH 330 0
DWIDTH 11 0
BBX 9 13 0 0
BITMAP
3f80
3f80
3000
2000
6e00
7f00
7380
0180
0180
0180
6180
7f00
3e00
ENDCHAR
STARTCHAR 6
ENCODING 54
SWIDTH 330 0
DWIDTH 11 0
BBX 9 14 1 0
BITMAP
3e00
7f00
7380
e380
c000
de00
ff00
e780
c380
c180
c180
e380
7f00
3e00
ENDCHAR
STARTCHAR 7
ENCODING 55
SWIDTH 330 0
DWIDTH 11 0
BBX 9 13 1 0
BITMAP
ff80
ff80
0300
0700
0600
0c00
0c00
1800
1800
1800
3800
3800
0800
ENDCHAR
STARTCHAR 8
ENCODING 56
SWIDTH 330 0
DWIDTH 11 0
BBX 9 14 1 0
BITMAP
3c00
7f00
6700
4300
4300
6700
3e00
7f00
e380
c380
c380
e380
7f00
3c00
ENDCHAR
STARTCHAR 9
ENCODING 57
SWIDTH 330 0
DWIDTH 11 0
BBX 9 14 1 0
BITMAP
3c00
7e00
7f00
c300
c380
c380
c380
7f80
7f80
1b80
0300
e700
7e00
3c00
ENDCHAR
STARTCHAR colon
ENCODING 58
SWIDTH 180 0
DWIDTH 6 0
BBX 2 11 2 0
BITMAP
40
c0
c0
00
00
00
00
00
40
c0
c0
ENDCHAR
STARTCHAR semicolon
ENCODING 59
SWIDTH 180 0
DWIDTH 6 0
BBX 3 12 2 -2
BITMAP
c0
e0
40
00
00
00
00
e0
e0
60
40
80
ENDCHAR
STARTCHAR less
ENCODING 60
SWIDTH 330 0
DWIDTH 11 0
BBX 9 9 1 0
BITMAP
0080
0780
1f80
fc00
e000
fc00
3f00
0780
0080
ENDCHAR
STARTCHAR equal
ENCODING 61
SWIDTH 330 0
DWIDTH 11 0
BBX 9 7 1 1
BITMAP
ff80
ff80
0000
0000
0000
ff80
ff80
ENDCHAR
STARTCHAR greater
ENCODING 62
SWIDTH 330 0
DWIDTH 11 0
BBX 9 9 1 0
BITMAP
8000
f000
fc00
1f80
0380
1f80
7e00
f000
8000
ENDCHAR
STARTCHAR question
ENCODING 63
SWIDTH 360 0
DWIDTH 12 0
BBX 10 14 1 0
BITMAP
3e00
7f80
7b80
e180
e180
0180
0380
0700
0c00
0c00
0000
0c00
0c00
0c00
ENDCHAR
STARTCHAR at
ENCODING 64
SWIDTH 540 0
DWIDTH 18 0
BBX 18 17 0 -3
BITMAP
01f800
07fe00
1c0700
380180
70ed80
61fcc0
e318c0
c618c0
c618c0
c61080
e63180
e7ff00
71ce00
380000
1e0800
0ff800
03f800
ENDCHAR
STARTCHAR A
ENCODING 65
SWIDTH 420 0
DWIDTH 14 0
BBX 13 14 0 0
BITMAP
0700
0f80
0f80
1f80
1dc0
1dc0
3cc0
38e0
38e0
7fe0
7ff0
f070
e030
2038
ENDCHAR
STARTCHAR B
ENCODING 66
SWIDTH 420 0
DWIDTH 14 0
BBX 11 14 2 0
BITMAP
ff00
ff80
c1c0
c1c0
c1c0
c1c0
ff80
ff80
c1c0
c0e0
c0c0
c1c0
ffc0
ff00
ENDCHAR
STARTCHAR C
ENCODING 67
SWIDTH 420 0
DWIDTH 14 0
BBX 12 14 1 0
BITMAP
0f80
3fc0
79e0
7070
e070
e000
e000
e000
e000
e070
6070
70e0
3fe0
1f80
ENDCHAR
STARTCHAR D
ENCODING 68
SWIDTH 420 0
DWIDTH 14 0
BBX 10 14 2 0
BITMAP
ff00
ff00
c380
c180
c0c0
c0c0
c0c0
c0c0
c0c0
c0c0
c180
c380
ff00
fe00
ENDCHAR
STARTCHAR E
ENCODING 69
SWIDTH 390 0
DWIDTH 13 0
BBX 10 14 2 0
BITMAP
ff80
ff80
c000
c000
c000
c000
ff80
ff80
c000
c000
c000
c000
ffc0
ffc0
ENDCHAR
STARTCHAR F
ENCODING 70
SWIDTH 360 0
DWIDTH 12 0
BBX 9 14 2 0
BITMAP
ff80
ff80
c000
c000
c000
c000
ff00
ff00
c000
c000
c000
c000
c000
c000
ENDCHAR
STARTCHAR G
ENCODING 71
SWIDTH 450 0
DWIDTH 15 0
BBX 13 14 1 0
BITMAP
0fc0
3fe0
78f0
7078
e038
e000
c000
c1f8
c1f8
e038
7038
7878
3ff8
0fd8
ENDCHAR
STARTCHAR H
ENCODING 72
SWIDTH 420 0
DWIDTH 14 0
BBX 10 14 2 0
BITMAP
c0c0
c0c0
c0c0
c0c0
c0c0
c0c0
ffc0
ffc0
c0c0
c0c0
c0c0
c0c0
c0c0
c0c0
ENDCHAR
STARTCHAR I
ENCODING 73
SWIDTH 150 0
DWIDTH 5 0
BBX 2 14 2 0
BITMAP
c0
c0
c0
c0
c0
c0
c0
c0
c0
c0
c0
c0
c0
c0
ENDCHAR
STARTCHAR J
ENCODING 74
SWIDTH 330 0
DWIDTH 11 0
BBX 8 14 1 0
BITMAP
03
03
03
03
03
03
03
03
03
c3
c3
e7
7e
3c
ENDCHAR
STARTCHAR K
ENCODING 75
SWIDTH 420 0
DWIDTH 14 0
BBX 12 14 2 0
BITMAP
c180
c3e0
c3c0
c780
ee00
fc00
fc00
fe00
ee00
c700
c380
c3c0
c1c0
c0e0
ENDCHAR
STARTCHAR L
ENCODING 76
SWIDTH 360 0
DWIDTH 12 0
BBX 9 14 2 0
BITMAP
c000
c000
c000
c000
c000
c000
c000
c000
c000
c000
c000
c000
ff80
ff80
ENDCHAR
STARTCHAR M
ENCODING 77
SWIDTH 480 0
DWIDTH 16 0
BBX 12 14 2 0
BITMAP
f0f0
f0f0
f0f0
f0f0
f1f0
d9f0
d9f0
d930
d930
cf30
cf30
cf30
cf30
ce30
ENDCHAR
STARTCHAR N
ENCODING 78
SWIDTH 420 0
DWIDTH 14 0
BBX 10 14 2 0
BITMAP
c0c0
e0c0
f0c0
f0c0
f8c0
d8c0
dcc0
cec0
c6c0
c7c0
c3c0
c3c0
c1c0
c0c0
ENDCHAR
STARTCHAR O
ENCODING 79
SWIDTH 450 0
DWIDTH 15 0
BBX 13 14 1 0
BITMAP
0f80
3fe0
78f0
7070
e038
e038
c018
c018
c038
e038
6070
78f0
3fe0
0f80
ENDCHAR
STARTCHAR P
ENCODING 80
SWIDTH 390 0
DWIDTH 13 0
BBX 10 14 2 0
BITMAP
ff00
ff80
c3c0
c1c0
c1c0
c1c0
c3c0
ff80
ff00
c000
c000
c000
c000
c000
ENDCHAR
STARTCHAR Q
ENCODING 81
SWIDTH 450 0
DWIDTH 15 0
BBX 13 15 1 -1
BITMAP
0f80
3fe0
78f0
7070
e038
e038
c018
c018
c018
e1b8
61f8
78f0
3ff8
0f98
0008
ENDCHAR
STARTCHAR R
ENCODING 82
SWIDTH 420 0
DWIDTH 14 0
BBX 12 14 2 0
BITMAP
ff80
ffc0
c0c0
c0e0
c0e0
c0c0
ff80
ff80
c3c0
c0c0
c0c0
c0c0
c0d0
c0e0
ENDCHAR
STARTCHAR S
ENCODING 83
SWIDTH 390 0
DWIDTH 13 0
BBX 11 14 1 0
BITMAP
1f00
7f80
61c0
e0c0
e000
7000
7f80
1fc0
01e0
00e0
e060
e0e0
7fc0
1f00
ENDCHAR
STARTCHAR T
ENCODING 84
SWIDTH 360 0
DWIDTH 12 0
BBX 11 14 0 0
BITMAP
ffe0
ffe0
0600
0600
0600
0600
0600
0600
0600
0600
0600
0600
0600
0600
ENDCHAR
STARTCHAR U
ENCODING 85
SWIDTH 420 0
DWIDTH 14 0
BBX 10 14 2 0
BITMAP
c0c0
c0c0
c0c0
c0c0
c0c0
c0c0
c0c0
c0c0
c0c0
c0c0
c0c0
e1c0
7f80
1e00
ENDCHAR
STARTCHAR V
ENCODING 86
SWIDTH 390 0
DWIDTH 13 0
BBX 12 14 0 0
BITMAP
e040
e070
70f0
70e0
70e0
39c0
39c0
39c0
1980
1f80
1f80
0f00
0f00
0e00
ENDCHAR
STARTCHAR W
ENCODING 87
SWIDTH 540 0
DWIDTH 18 0
BBX 17 14 0 0
BITMAP
e1c200
e1c380
61c380
61e700
736700
336700
336600
337600
3a3600
1e3e00
1e3c00
1e3c00
1e1c00
0e1800
ENDCHAR
STARTCHAR X
ENCODING 88
SWIDTH 390 0
DWIDTH 13 0
BBX 12 14 0 0
BITMAP
f0c0
70f0
39e0
39c0
1f80
1f80
0f00
0f00
1f80
3f80
39c0
79c0
f0e0
30f0
ENDCHAR
STARTCHAR Y
ENCODING 89
SWIDTH 390 0
DWIDTH 13 0
BBX 12 14 0 0
BITMAP
7040
70f0
38e0
38e0
1dc0
1d80
0f80
0f00
0600
0600
0600
0600
0600
0600
ENDCHAR
STARTCHAR Z
ENCODING 90
SWIDTH 360 0
DWIDTH 12 0
BBX 10 14 1 0
BITMAP
ffc0
ffc0
03c0
0380
0300
0700
0e00
1c00
1c00
3800
7000
f000
ffc0
ffc0
ENDCHAR
STARTCHAR bracketleft
ENCODING 91
SWIDTH 180 0
DWIDTH 6 0
BBX 5 18 1 -4
BITMAP
f8
f8
c0
c0
c0
c0
c0
c0
c0
c0
c0
c0
c0
c0
c0
c0
f8
f8
ENDCHAR
STARTCHAR backslash
ENCODING 92
SWIDTH 150 0
DWIDTH 5 0
BBX 6 13 0 0
BITMAP
c0
40
60
60
20
30
30
10
18
18
18
0c
0c
ENDCHAR
STARTCHAR bracketright
ENCODING 93
SWIDTH 180 0
DWIDTH 6 0
BBX 5 18 0 -4
BITMAP
f8
f8
18
18
18
18
18
18
18
18
18
18
18
18
18
18
f8
f8
ENDCHAR
STARTCHAR asciicircum
ENCODING 94
SWIDTH 330 0
DWIDTH 11 0
BBX 9 8 1 5
BITMAP
1c00
1c00
3e00
3600
7700
6300
6300
c380
ENDCHAR
STARTCHAR underscore
ENCODING 95
SWIDTH 330 0
DWIDTH 11 0
BBX 11 2 0 -4
BITMAP
ffe0
ffe0
ENDCHAR
STARTCHAR grave
ENCODING 96
SWIDTH 180 0
DWIDTH 6 0
BBX 6 5 0 3
BITMAP
78
fc
fc
fc
78
ENDCHAR
STARTCHAR a
ENCODING 97
SWIDTH 330 0
DWIDTH 11 0
BBX 9 10 1 0
BITMAP
3e00
7f00
e300
e300
3f00
7b00
c300
c300
ff80
7980
ENDCHAR
STARTCHAR b
ENCODING 98
SWIDTH 360 0
DWIDTH 12 0
BBX 10 14 1 0
BITMAP
c000
c000
c000
c000
ff00
ff80
f3c0
e1c0
c0c0
c0c0
e1c0
f380
ff80
de00
ENDCHAR
STARTCHAR c
ENCODING 99
SWIDTH 330 0
DWIDTH 11 0
BBX 9 10 1 0
BITMAP
3e00
7f00
e380
e180
e000
e000
e380
e380
7f00
3e00
ENDCHAR
STARTCHAR d
ENCODING 100
SWIDTH 360 0
DWIDTH 12 0
BBX 9 14 1 0
BITMAP
0180
0180
0180
0180
7d80
ff80
e380
c380
c180
c180
c380
e380
7f80
7c80
ENDCHAR
STARTCHAR e
ENCODING 101
SWIDTH 330 0
DWIDTH 11 0
BBX 9 10 1 0
BITMAP
3e00
7f00
e300
e180
ff80
ff80
c000
e380
7f00
3c00
ENDCHAR
STARTCHAR f
ENCODING 102
SWIDTH 180 0
DWIDTH 6 0
BBX 6 14 0 0
BITMAP
1c
3c
38
30
fc
fc
30
30
30
30
30
30
30
30
ENDCHAR
STARTCHAR g
ENCODING 103
SWIDTH 360 0
DWIDTH 12 0
BBX 9 14 1 -4
BITMAP
3d80
7f80
e380
c380
c180
c180
c180
e380
7f80
3d80
0180
e380
ff00
3e00
ENDCHAR
STARTCHAR h
ENCODING 104
SWIDTH 360 0
DWIDTH 12 0
BBX 8 14 2 0
BITMAP
c0
c0
c0
c0
de
ff
e7
c3
c3
c3
c3
c3
c3
c3
ENDCHAR
STARTCHAR i
ENCODING 105
SWIDTH 150 0
DWIDTH 5 0
BBX 2 14 2 0
BITMAP
c0
c0
00
00
c0
c0
c0
c0
c0
c0
c0
c0
c0
c0
ENDCHAR
STARTCHAR j
ENCODING 106
SWIDTH 150 0
DWIDTH 5 0
BBX 4 18 0 -4
BITMAP
30
30
00
00
30
30
30
30
30
30
30
30
30
30
30
30
f0
e0
ENDCHAR
STARTCHAR k
ENCODING 107
SWIDTH 330 0
DWIDTH 11 0
BBX 9 14 1 0
BITMAP
c000
c000
c000
c000
c700
c700
ee00
fc00
fc00
fe00
ce00
c700
c700
c380
ENDCHAR
STARTCHAR l
ENCODING 108
SWIDTH 150 0
DWIDTH 5 0
BBX 2 14 2 0
BITMAP
c0
c0
c0
c0
c0
c0
c0
c0
c0
c0
c0
c0
c0
c0
ENDCHAR
STARTCHAR m
ENCODING 109
SWIDTH 510 0
DWIDTH 17 0
BBX 14 10 1 0
BITMAP
ce78
fffc
e38c
c30c
c30c
c30c
c30c
c30c
c30c
c30c
ENDCHAR
STARTCHAR n
ENCODING 110
SWIDTH 360 0
DWIDTH 12 0
BBX 8 10 2 0
BITMAP
de
ff
c3
c3
c3
c3
c3
c3
c3
c3
ENDCHAR
STARTCHAR o
ENCODING 111
SWIDTH 360 0
DWIDTH 12 0
BBX 10 10 1 0
BITMAP
1e00
7f80
e380
e1c0
c1c0
c1c0
e1c0
e380
7f80
1e00
ENDCHAR
STARTCHAR p
ENCODING 112
SWIDTH 360 0
DWIDTH 12 0
BBX 10 14 1 -4
BITMAP
ce00
ff80
f380
e1c0
c1c0
c1c0
e1c0
f380
ff80
df00
c000
c000
c000
c000
ENDCHAR
STARTCHAR q
ENCODING 113
SWIDTH 360 0
DWIDTH 12 0
BBX 9 14 1 -4
BITMAP
3d80
7f80
6380
c380
c180
c180
c180
e380
7f80
3f80
0180
0180
0180
0180
ENDCHAR
STARTCHAR r
ENCODING 114
SWIDTH 210 0
DWIDTH 7 0
BBX 5 10 2 0
BITMAP
d8
f8
e0
c0
c0
c0
c0
c0
c0
c0
ENDCHAR
STARTCHAR s
ENCODING 115
SWIDTH 330 0
DWIDTH 11 0
BBX 9 10 1 0
BITMAP
3e00
7f00
e380
f000
7e00
3f80
0380
e380
7f80
3e00
ENDCHAR
STARTCHAR t
ENCODING 116
SWIDTH 180 0
DWIDTH 6 0
BBX 6 13 0 0
BITMAP
30
30
30
fc
fc
30
30
30
30
30
30
3c
1c
ENDCHAR
STARTCHAR u
ENCODING 117
SWIDTH 360 0
DWIDTH 12 0
BBX 9 10 1 0
BITMAP
c180
c180
c180
c180
c180
c180
c180
e380
ff80
7c80
ENDCHAR
STARTCHAR v
ENCODING 118
SWIDTH 330 0
DWIDTH 11 0
BBX 10 10 0 0
BITMAP
e100
61c0
73c0
7380
3380
3700
3f00
1e00
1e00
1e00
ENDCHAR
STARTCHAR w
ENCODING 119
SWIDTH 450 0
DWIDTH 15 0
BBX 14 10 0 0
BITMAP
c310
e79c
679c
6798
77b8
34f8
3cf0
3cf0
3cf0
1c60
ENDCHAR
STARTCHAR x
ENCODING 120
SWIDTH 330 0
DWIDTH 11 0
BBX 10 10 0 0
BITMAP
f100
73c0
3f80
3f00
1e00
1e00
3f00
7f00
f380
23c0
ENDCHAR
STARTCHAR y
ENCODING 121
SWIDTH 330 0
DWIDTH 11 0
BBX 10 14 0 -4
BITMAP
e100
61c0
71c0
7380
3380
3b00
3f00
1f00
1e00
1e00
0c00
1c00
7800
7800
ENDCHAR
STARTCHAR z
ENCODING 122
SWIDTH 270 0
DWIDTH 9 0
BBX 9 10 0 0
BITMAP
7f80
7f80
0780
0f00
0e00
1c00
3800
7000
ff80
ff80
ENDCHAR
STARTCHAR braceleft
ENCODING 123
SWIDTH 210 0
DWIDTH 7 0
BBX 5 18 1 -4
BITMAP
38
78
60
60
60
60
60
60
c0
e0
60
60
60
60
60
60
78
38
ENDCHAR
STARTCHAR bar
ENCODING 124
SWIDTH 150 0
DWIDTH 5 0
BBX 2 18 2 -4
BITMAP
c0
c0
c0
c0
c0
c0
c0
c0
c0
c0
c0
c0
c0
c0
c0
c0
c0
c0
ENDCHAR
STARTCHAR braceright
ENCODING 125
SWIDTH 210 0
DWIDTH 7 0
BBX 6 18 1 -4
BITMAP
e0
f0
30
30
30
30
30
30
1c
3c
30
30
30
30
30
30
f0
e0
ENDCHAR
STARTCHAR asciitilde
ENCODING 126
SWIDTH 330 0
DWIDTH 11 0
BBX 9 3 1 3
BITMAP
7000
fd80
8f00
ENDCHAR
STARTCHAR exclamdown
ENCODING 161
SWIDTH 360 0
DWIDTH 12 0
BBX 10 12 1 0
BITMAP
1f00
7f80
e1c0
f0c0
30c0
60c0
60c0
60c0
60c0
60c0
60c0
60c0
ENDCHAR
STARTCHAR cent
ENCODING 162
SWIDTH 360 0
DWIDTH 12 0
BBX 10 12 0 0
BITMAP
3cc0
7ec0
dec0
dec0
76c0
0ec0
0cc0
0cc0
0cc0
0cc0
1fc0
1f80
ENDCHAR
STARTCHAR sterling
ENCODING 163
SWIDTH 390 0
DWIDTH 13 0
BBX 12 12 0 0
BITMAP
1200
7f30
45b0
f930
cb30
4b30
7b30
0330
0330
0330
0ff0
0fe0
ENDCHAR
STARTCHAR currency
ENCODING 164
SWIDTH 360 0
DWIDTH 12 0
BBX 10 12 1 0
BITMAP
1e00
7f80
e1c0
ccc0
9ec0
f6c0
fcc0
7cc0
70c0
30c0
30c0
30c0
ENDCHAR
STARTCHAR yen
ENCODING 165
SWIDTH 360 0
DWIDTH 12 0
BBX 10 12 1 0
BITMAP
0900
3f80
6dc0
ccc0
9ec0
f6c0
fcc0
7cc0
70c0
30c0
30c0
30c0
ENDCHAR
STARTCHAR brokenbar
ENCODING 166
SWIDTH 450 0
DWIDTH 15 0
BBX 13 12 1 0
BITMAP
1200
7e18
9318
f318
9618
9618
f618
1f98
3fd8
3678
3638
1c18
ENDCHAR
STARTCHAR section
ENCODING 167
SWIDTH 300 0
DWIDTH 10 0
BBX 8 12 0 0
BITMAP
02
0f
0b
0f
4f
63
63
33
3b
1b
0f
0e
ENDCHAR
STARTCHAR diaeresis
ENCODING 168
SWIDTH 330 0
DWIDTH 11 0
BBX 9 12 1 0
BITMAP
3e00
7f00
c380
8180
3180
7980
4980
7d80
3d80
0d80
0780
0700
ENDCHAR
STARTCHAR copyright
ENCODING 169
SWIDTH 390 0
DWIDTH 13 0
BBX 12 12 1 0
BITMAP
1f00
3f80
61c0
40c0
60c0
f0c0
90c0
f3e0
7ef0
38f0
30f0
3060
ENDCHAR
STARTCHAR ordfeminine
ENCODING 170
SWIDTH 360 0
DWIDTH 12 0
BBX 11 12 1 0
BITMAP
0020
7c60
f4c0
9f80
9fc0
74c0
0cc0
0cc0
0cc0
0cc0
3fc0
3f80
ENDCHAR
STARTCHAR guillemotleft
ENCODING 171
SWIDTH 390 0
DWIDTH 13 0
BBX 13 12 0 0
BITMAP
1438
7f70
4be0
fbe0
cb60
5f60
7660
0660
0660
0660
0fe0
0fe0
ENDCHAR
STARTCHAR notsign
ENCODING 172
SWIDTH 480 0
DWIDTH 16 0
BBX 13 12 1 0
BITMAP
0c00
7f18
e198
f198
3198
6198
6198
6198
73d8
6bf8
4b98
3398
ENDCHAR
STARTCHAR hyphen
ENCODING 173
SWIDTH 480 0
DWIDTH 16 0
BBX 13 17 1 -5
BITMAP
0c00
7f18
e198
f198
3198
6198
6198
6198
7198
6998
6bf8
3bf0
0100
0398
0258
03f0
03f0
ENDCHAR
STARTCHAR registered
ENCODING 174
SWIDTH 390 0
DWIDTH 13 0
BBX 12 17 0 -5
BITMAP
0300
1fe0
3870
3c30
0e30
1830
1830
1830
7830
4830
5830
7230
1f30
3fb0
23f0
3ef0
1c30
ENDCHAR
STARTCHAR macron
ENCODING 175
SWIDTH 390 0
DWIDTH 13 0
BBX 12 17 0 -5
BITMAP
0300
1fe0
3870
3c30
0e30
1830
1830
1830
7830
5830
5830
7230
0230
1e30
3ef0
27f0
3f70
ENDCHAR
STARTCHAR degree
ENCODING 176
SWIDTH 300 0
DWIDTH 10 0
BBX 10 18 0 -6
BITMAP
0800
3fc0
7180
7e00
0700
3b00
6f00
6f00
3f00
0700
0300
0300
0200
1700
1580
f780
b700
fe00
ENDCHAR
STARTCHAR plusminus
ENCODING 177
SWIDTH 480 0
DWIDTH 16 0
BBX 14 12 0 0
BITMAP
1400
7f3c
cb6c
f36c
cecc
decc
778c
078c
070c
070c
070c
060c
ENDCHAR
STARTCHAR twosuperior
ENCODING 178
SWIDTH 480 0
DWIDTH 16 0
BBX 14 12 1 0
BITMAP
1100
7f8c
c9cc
cccc
9ecc
b6cc
decc
cccc
6dec
7afc
72dc
61cc
ENDCHAR
STARTCHAR threesuperior
ENCODING 179
SWIDTH 480 0
DWIDTH 16 0
BBX 15 12 1 0
BITMAP
0c00
7f18
e198
f198
3198
6198
6198
61bc
71fe
69da
499a
319e
ENDCHAR
STARTCHAR acute
ENCODING 180
SWIDTH 360 0
DWIDTH 12 0
BBX 10 12 1 0
BITMAP
3f00
7f80
61c0
ccc0
dec0
f6c0
dec0
4cc0
6cc0
38c0
30c0
30c0
ENDCHAR
STARTCHAR mu
ENCODING 181
SWIDTH 360 0
DWIDTH 12 0
BBX 10 12 1 0
BITMAP
1100
7f80
c9c0
ccc0
9ec0
b6c0
dec0
ccc0
6cc0
78c0
70c0
70c0
ENDCHAR
STARTCHAR paragraph
ENCODING 182
SWIDTH 360 0
DWIDTH 12 0
BBX 10 12 1 0
BITMAP
1f00
7f80
e1c0
f0c0
30c0
60c0
60c0
60c0
78c0
68c0
68c0
38c0
ENDCHAR
STARTCHAR periodcentered
ENCODING 183
SWIDTH 390 0
DWIDTH 13 0
BBX 11 12 1 0
BITMAP
2000
f1e0
b360
f360
f660
3660
3c60
3c60
3860
3860
3860
3060
ENDCHAR
STARTCHAR cedilla
ENCODING 184
SWIDTH 330 0
DWIDTH 11 0
BBX 10 12 0 0
BITMAP
0800
3fc0
61c0
fe00
0700
3180
3180
3180
3180
3180
7f80
7f80
ENDCHAR
STARTCHAR onesuperior
ENCODING 185
SWIDTH 390 0
DWIDTH 13 0
BBX 12 12 1 0
BITMAP
4000
f0c0
90c0
f0c0
70c0
30c0
30c0
33e0
37f0
3cf0
38f0
3060
ENDCHAR
STARTCHAR masculine
ENCODING 186
SWIDTH 390 0
DWIDTH 13 0
BBX 11 12 0 0
BITMAP
2000
7860
d860
d860
7860
1860
1860
1860
1860
1860
7fe0
7fc0
ENDCHAR
STARTCHAR guillemotright
ENCODING 187
SWIDTH 390 0
DWIDTH 13 0
BBX 11 16 0 0
BITMAP
0060
0060
0060
0060
2060
7860
d860
d860
7860
1860
1860
1860
1860
1860
7fe0
7fc0
ENDCHAR
STARTCHAR onequarter
ENCODING 188
SWIDTH 360 0
DWIDTH 12 0
BBX 9 12 2 0
BITMAP
2000
f180
d180
f180
e180
c980
d980
fd80
e780
c380
c180
c180
ENDCHAR
STARTCHAR onehalf
ENCODING 189
SWIDTH 360 0
DWIDTH 12 0
BBX 9 16 2 0
BITMAP
0180
0180
0180
0180
2180
f180
d180
f180
e180
c980
d980
fd80
e780
c380
c180
c180
ENDCHAR
STARTCHAR threequarters
ENCODING 190
SWIDTH 420 0
DWIDTH 14 0
BBX 13 12 0 0
BITMAP
2000
7918
d998
db98
7bd8
1ad8
1ef8
1c78
1c78
1838
1838
1818
ENDCHAR
STARTCHAR questiondown
ENCODING 191
SWIDTH 420 0
DWIDTH 14 0
BBX 13 16 0 0
BITMAP
0018
0018
0018
0018
2018
7918
d998
db98
7bd8
1ad8
1ef8
1c78
1c78
1838
1838
1818
ENDCHAR
STARTCHAR Agrave
ENCODING 192
SWIDTH 390 0
DWIDTH 13 0
BBX 12 12 0 0
BITMAP
0300
1fe0
3870
3c30
0c30
1830
1830
1830
7830
5830
5830
7030
ENDCHAR
STARTCHAR Aacute
ENCODING 193
SWIDTH 390 0
DWIDTH 13 0
BBX 10 12 1 0
BITMAP
2000
f0c0
90c0
f0c0
70c0
30c0
30c0
7ec0
f7c0
b1c0
f0c0
60c0
ENDCHAR
STARTCHAR Acircumflex
ENCODING 194
SWIDTH 360 0
DWIDTH 12 0
BBX 9 12 1 0
BITMAP
1000
7980
6d80
f980
f180
6180
3980
7180
6180
6180
7f80
7f80
ENDCHAR
STARTCHAR Atilde
ENCODING 195
SWIDTH 300 0
DWIDTH 10 0
BBX 10 12 0 0
BITMAP
1c00
7fc0
c180
fe00
0700
0380
0380
0380
0f80
0d80
0d80
0700
ENDCHAR
STARTCHAR Adiaeresis
ENCODING 196
SWIDTH 360 0
DWIDTH 12 0
BBX 10 18 1 -6
BITMAP
1f00
7f80
e1c0
f0c0
30c0
60c0
60c0
60c0
78c0
68c0
68c0
38c0
00c0
00c0
00c0
00c0
00c0
00c0
ENDCHAR
STARTCHAR Aring
ENCODING 197
SWIDTH 360 0
DWIDTH 12 0
BBX 9 12 1 0
BITMAP
3e00
7f00
c380
4180
3980
6d80
4780
4380
7b80
4980
4980
3180
ENDCHAR
STARTCHAR AE
ENCODING 198
SWIDTH 390 0
DWIDTH 13 0
BBX 12 18 0 -6
BITMAP
0300
1fe0
3870
3c30
0c30
1830
1830
1830
7830
5830
5830
7030
0030
0030
0030
0030
0030
0030
ENDCHAR
STARTCHAR Ccedilla
ENCODING 199
SWIDTH 330 0
DWIDTH 11 0
BBX 9 12 0 0
BITMAP
3e00
7f00
e380
4180
0180
0180
0180
0180
0780
0580
0580
0700
ENDCHAR
STARTCHAR Egrave
ENCODING 200
SWIDTH 360 0
DWIDTH 12 0
BBX 11 12 1 0
BITMAP
0c40
7fc0
e1c0
dfc0
9ec0
f6c0
fcc0
7cc0
70c0
30c0
30c0
30c0
ENDCHAR
STARTCHAR Eacute
ENCODING 201
SWIDTH 390 0
DWIDTH 13 0
BBX 13 12 1 0
BITMAP
2000
f0c0
b0c0
b0c0
f6d8
35d0
37f0
37e0
30c0
30c0
7fc0
7f80
ENDCHAR
STARTCHAR Ecircumflex
ENCODING 202
SWIDTH 360 0
DWIDTH 12 0
BBX 10 13 1 0
BITMAP
0080
3ec0
7f80
e380
4380
3f80
6f80
4780
4380
7b80
4980
4980
3980
ENDCHAR
STARTCHAR Ediaeresis
ENCODING 203
SWIDTH 390 0
DWIDTH 13 0
BBX 11 12 0 0
BITMAP
2040
f9e0
d920
d9e0
79c0
1b60
1e60
1c60
1860
1860
1860
1860
ENDCHAR
STARTCHAR Igrave
ENCODING 204
SWIDTH 420 0
DWIDTH 14 0
BBX 15 13 0 0
BITMAP
007c
204e
785c
d978
d998
7b98
1bd8
1ef8
1e78
1c78
1c38
1838
1818
ENDCHAR
STARTCHAR Iacute
ENCODING 205
SWIDTH 360 0
DWIDTH 12 0
BBX 9 12 1 0
BITMAP
3e00
7f00
c380
4180
3180
7980
4980
7980
7180
6180
7f80
7f80
ENDCHAR
STARTCHAR Icircumflex
ENCODING 206
SWIDTH 360 0
DWIDTH 12 0
BBX 11 12 1 0
BITMAP
3e40
7fe0
c1c0
ff80
7f80
7180
5980
5980
7180
6180
7f80
7f80
ENDCHAR
STARTCHAR Idiaeresis
ENCODING 207
SWIDTH 330 0
DWIDTH 11 0
BBX 9 12 1 0
BITMAP
1000
7980
c980
fb80
f380
7f80
3d80
0180
0180
0180
0380
0600
ENDCHAR
STARTCHAR ETH
ENCODING 208
SWIDTH 270 0
DWIDTH 9 0
BBX 8 11 0 0
BITMAP
73
fb
df
fe
7c
00
73
fb
df
fe
7c
ENDCHAR
STARTCHAR Ntilde
ENCODING 209
SWIDTH 0 0
DWIDTH 0 0
BBX 10 5 -8 13
BITMAP
7080
d9c0
d380
7f00
1800
ENDCHAR
STARTCHAR Ograve
ENCODING 210
SWIDTH 300 0
DWIDTH 10 0
BBX 8 12 0 0
BITMAP
3c
7f
63
c3
03
03
03
03
03
03
03
03
ENDCHAR
STARTCHAR Oacute
ENCODING 211
SWIDTH 300 0
DWIDTH 10 0
BBX 14 18 -6 0
BITMAP
7000
d800
d800
7000
0000
0000
00f0
01fc
018c
030c
000c
000c
000c
000c
000c
000c
000c
000c
ENDCHAR
STARTCHAR Ocircumflex
ENCODING 212
SWIDTH 0 0
DWIDTH 0 0
BBX 9 5 -10 13
BITMAP
3e00
7300
fd00
ff80
0080
ENDCHAR
STARTCHAR Otilde
ENCODING 213
SWIDTH 30 0
DWIDTH 1 0
BBX 9 6 -10 13
BITMAP
0180
1f80
7380
7d80
ff80
0080
ENDCHAR
STARTCHAR Odiaeresis
ENCODING 214
SWIDTH 0 0
DWIDTH 0 0
BBX 9 7 -11 13
BITMAP
0100
0380
3e80
6380
fd00
ff80
0080
ENDCHAR
STARTCHAR multiply
ENCODING 215
SWIDTH 30 0
DWIDTH 1 0
BBX 9 6 -10 13
BITMAP
0780
1f80
7380
7d80
ff80
0080
ENDCHAR
STARTCHAR Ooblique
ENCODING 216
SWIDTH 0 0
DWIDTH 0 0
BBX 5 7 -6 -8
BITMAP
60
f8
98
f8
78
18
18
ENDCHAR
STARTCHAR Ugrave
ENCODING 217
SWIDTH 0 0
DWIDTH 0 0
BBX 8 8 -9 -9
BITMAP
63
f3
9b
fb
7b
1b
1f
04
ENDCHAR
STARTCHAR Uacute
ENCODING 218
SWIDTH 0 0
DWIDTH 0 0
BBX 2 2 -4 -4
BITMAP
c0
c0
ENDCHAR
STARTCHAR Ucircumflex
ENCODING 219
SWIDTH 0 0
DWIDTH 0 0
BBX 2 2 -4 -8
BITMAP
c0
c0
ENDCHAR
STARTCHAR Udiaeresis
ENCODING 220
SWIDTH 0 0
DWIDTH 0 0
BBX 1 1 0 0
BITMAP
00
ENDCHAR
STARTCHAR Yacute
ENCODING 221
SWIDTH 0 0
DWIDTH 0 0
BBX 1 1 0 0
BITMAP
00
ENDCHAR
STARTCHAR THORN
ENCODING 222
SWIDTH 0 0
DWIDTH 0 0
BBX 1 1 0 0
BITMAP
00
ENDCHAR
STARTCHAR ssharp
ENCODING 223
SWIDTH 420 0
DWIDTH 14 0
BBX 11 16 2 -1
BITMAP
0c00
ff00
ff80
cfc0
cdc0
cdc0
cfc0
ff80
ff80
cfc0
cce0
ccc0
cfc0
ffc0
ff00
0c00
ENDCHAR
STARTCHAR agrave
ENCODING 224
SWIDTH 180 0
DWIDTH 6 0
BBX 4 11 2 0
BITMAP
c0
c0
c0
c0
c0
c0
c0
f0
d0
d0
60
ENDCHAR
STARTCHAR aacute
ENCODING 225
SWIDTH 360 0
DWIDTH 12 0
BBX 9 11 2 0
BITMAP
c600
c600
c600
c600
c600
c600
c600
f780
d680
d680
6380
ENDCHAR
STARTCHAR acircumflex
ENCODING 226
SWIDTH 240 0
DWIDTH 8 0
BBX 9 21 -1 0
BITMAP
0800
7f00
f780
3800
0c00
0c00
0c00
0c00
0c00
0c00
0c00
0c00
0c00
0c00
0c00
0c00
0c00
0f00
0d00
0d00
0700
ENDCHAR
STARTCHAR atilde
ENCODING 227
SWIDTH 240 0
DWIDTH 8 0
BBX 8 20 -1 0
BITMAP
38
4c
ec
bc
6c
0c
0c
0c
0c
0c
0c
0c
0c
0c
0c
0c
0f
0d
0d
07
ENDCHAR
STARTCHAR adiaeresis
ENCODING 228
SWIDTH 270 0
DWIDTH 9 0
BBX 10 21 -1 0
BITMAP
4400
ce00
6e00
7e00
7e00
3600
3600
0600
0600
0600
0600
0600
0600
0600
0600
0600
0600
0780
0680
0680
0380
ENDCHAR
STARTCHAR aring
ENCODING 229
SWIDTH 300 0
DWIDTH 10 0
BBX 8 18 0 -6
BITMAP
3c
7f
63
c3
03
03
03
03
03
03
03
03
03
03
03
03
03
03
ENDCHAR
STARTCHAR ae
ENCODING 230
SWIDTH 390 0
DWIDTH 13 0
BBX 9 16 3 -4
BITMAP
1200
7f00
6b80
f180
f980
e980
7980
0180
0180
0180
0180
0180
0180
0380
0f00
0e00
ENDCHAR
STARTCHAR ccedilla
ENCODING 231
SWIDTH 0 0
DWIDTH 0 0
BBX 9 7 -10 13
BITMAP
0180
3f80
fe00
d700
fd80
6f00
4300
ENDCHAR
STARTCHAR egrave
ENCODING 232
SWIDTH 0 0
DWIDTH 0 0
BBX 2 4 -3 21
BITMAP
c0
c0
c0
c0
ENDCHAR
STARTCHAR eacute
ENCODING 233
SWIDTH 0 0
DWIDTH 0 0
BBX 7 5 -6 20
BITMAP
40
e6
b6
6c
78
ENDCHAR
STARTCHAR ecircumflex
ENCODING 234
SWIDTH 0 0
DWIDTH 0 0
BBX 8 4 -8 20
BITMAP
7d
c5
e7
ee
ENDCHAR
STARTCHAR ediaeresis
ENCODING 235
SWIDTH 0 0
DWIDTH 0 0
BBX 5 4 -5 20
BITMAP
30
f8
f8
30
ENDCHAR
STARTCHAR igrave
ENCODING 236
SWIDTH 0 0
DWIDTH 0 0
BBX 6 6 -7 19
BITMAP
04
1c
78
e0
90
60
ENDCHAR
STARTCHAR iacute
ENCODING 237
SWIDTH 0 0
DWIDTH 0 0
BBX 4 4 -6 14
BITMAP
60
90
90
60
ENDCHAR
STARTCHAR icircumflex
ENCODING 238
SWIDTH 0 0
DWIDTH 0 0
BBX 4 4 -6 17
BITMAP
60
90
90
60
ENDCHAR
STARTCHAR idiaeresis
ENCODING 239
SWIDTH 330 0
DWIDTH 11 0
BBX 12 12 0 0
BITMAP
0f00
3fc0
6060
4e60
df30
dfb0
dfb0
df30
ce60
6060
3fc0
1f00
ENDCHAR
STARTCHAR eth
ENCODING 240
SWIDTH 360 0
DWIDTH 12 0
BBX 10 8 1 0
BITMAP
3f00
7f80
e1c0
e1c0
e1c0
e1c0
7f80
3f00
ENDCHAR
STARTCHAR ntilde
ENCODING 241
SWIDTH 360 0
DWIDTH 12 0
BBX 10 10 1 -1
BITMAP
1e00
7f80
7380
edc0
dec0
d6c0
fec0
7d80
1980
0100
ENDCHAR
STARTCHAR ograve
ENCODING 242
SWIDTH 420 0
DWIDTH 14 0
BBX 12 12 1 0
BITMAP
4000
e000
6000
6000
6ee0
7bf0
7f30
7a30
7a30
6e30
7ff0
3fe0
ENDCHAR
STARTCHAR oacute
ENCODING 243
SWIDTH 420 0
DWIDTH 14 0
BBX 12 9 1 0
BITMAP
39c0
7fe0
e770
c630
c630
fe30
ce30
7e70
7620
ENDCHAR
STARTCHAR ocircumflex
ENCODING 244
SWIDTH 420 0
DWIDTH 14 0
BBX 13 13 1 0
BITMAP
0018
0018
0018
0038
0470
3fe0
7080
cf00
cb00
cf00
ef00
7ff0
1e20
ENDCHAR
STARTCHAR otilde
ENCODING 245
SWIDTH 420 0
DWIDTH 14 0
BBX 13 13 1 0
BITMAP
0018
0018
0f18
0b30
0f30
3ff0
7fc0
cf00
cb00
cf00
ef00
7ff0
1e20
ENDCHAR
STARTCHAR odiaeresis
ENCODING 246
SWIDTH 300 0
DWIDTH 10 0
BBX 10 13 0 0
BITMAP
4000
4000
6000
6000
2f00
3f80
31c0
00c0
3cc0
3cc0
25c0
3f80
1f00
ENDCHAR
STARTCHAR division
ENCODING 247
SWIDTH 420 0
DWIDTH 14 0
BBX 13 13 1 0
BITMAP
0010
0018
0030
0030
0030
7fb0
7ff0
ccf0
c0f0
f8f0
f8b0
e9e0
7980
ENDCHAR
STARTCHAR oslash
ENCODING 248
SWIDTH 420 0
DWIDTH 14 0
BBX 12 12 1 0
BITMAP
0030
0030
0030
0030
3ff0
7fe0
c080
c1e0
d960
fde0
7660
33c0
ENDCHAR
STARTCHAR ugrave
ENCODING 249
SWIDTH 360 0
DWIDTH 12 0
BBX 11 12 1 0
BITMAP
0060
0060
0060
0060
3fe0
7fe0
c300
c300
dd80
f580
7cc0
3c40
ENDCHAR
STARTCHAR uacute
ENCODING 250
SWIDTH 990 0
DWIDTH 33 0
BBX 33 2 0 4
BITMAP
ffffffff80
ffffffff80
ENDCHAR
STARTCHAR ucircumflex
ENCODING 251
SWIDTH 510 0
DWIDTH 17 0
BBX 17 2 0 4
BITMAP
ffff80
ffff80
ENDCHAR
STARTCHAR udiaeresis
ENCODING 252
SWIDTH 0 0
DWIDTH 0 0
BBX 4 7 -6 -13
BITMAP
40
f0
b0
f0
70
30
30
ENDCHAR
STARTCHAR yacute
ENCODING 253
SWIDTH 0 0
DWIDTH 0 0
BBX 7 8 -9 -14
BITMAP
20
f6
96
f6
76
36
1e
08
ENDCHAR
STARTCHAR thorn
ENCODING 254
SWIDTH 420 0
DWIDTH 14 0
BBX 13 13 1 0
BITMAP
0780
1fc0
2020
4f10
8c88
8c88
8f08
8d08
8d88
4cc8
4010
2720
1fc0
ENDCHAR
STARTCHAR ydiaeresis
ENCODING 255
SWIDTH 0 0
DWIDTH 0 0
BBX 1 1 0 0
BITMAP
00
ENDCHAR
ENDFONT
